<svg id="Group_282" data-name="Group 282" xmlns="http://www.w3.org/2000/svg" width="22.52" height="5.116" viewBox="0 0 22.52 5.116">
  <path id="Path_2" data-name="Path 2" d="M275.428,88.734v3.329a.43.43,0,0,0,.431.429h.816a.43.43,0,0,0,.431-.429V88.734h1.2a.43.43,0,0,0,.431-.429v-.5a.43.43,0,0,0-.431-.429l-4.56,0v.91h0V88.3a.43.43,0,0,0,.43.429Z" transform="translate(-258.636 -87.376)" fill="#e64a25" fill-rule="evenodd"/>
  <path id="Path_3" data-name="Path 3" d="M185.544,90.177a.431.431,0,0,0,.431.43H188.9v.542h-2.925a.43.43,0,0,0-.431.429v.5a.43.43,0,0,0,.431.429h3.991a.43.43,0,0,0,.431-.429v-2.4a.431.431,0,0,0-.431-.43h-2.925V88.7l2.925.045a.43.43,0,0,0,.431-.429v-.5a.43.43,0,0,0-.431-.429l-4.426,0Z" transform="translate(-175.689 -87.391)" fill="#e64a25" fill-rule="evenodd"/>
  <path id="Path_4" data-name="Path 4" d="M146.922,92.1a.43.43,0,0,0,.431.429h.816a.43.43,0,0,0,.431-.429v-4.25a.43.43,0,0,0-.431-.429l-1.246,0Z" transform="translate(-139.374 -87.414)" fill="#e64a25" fill-rule="evenodd"/>
  <path id="Path_5" data-name="Path 5" d="M369.806,92.1a.43.43,0,0,0,.431.429h.817a.43.43,0,0,0,.431-.429v-4.25a.43.43,0,0,0-.431-.429l-1.246,0Z" transform="translate(-348.964 -87.414)" fill="#e64a25" fill-rule="evenodd"/>
  <path id="Path_6" data-name="Path 6" d="M25.627,88.739v3.323a.43.43,0,0,0,.431.429h.816a.43.43,0,0,0,.431-.429v-4.25a.43.43,0,0,0-.431-.429H20.365v4.679a.43.43,0,0,0,.431.429h.817a.429.429,0,0,0,.43-.429V88.739H23v3.323a.43.43,0,0,0,.431.429h.817a.43.43,0,0,0,.431-.429V88.739Z" transform="translate(-20.365 -87.383)" fill="#e64a25" fill-rule="evenodd"/>
</svg>
