<svg xmlns="http://www.w3.org/2000/svg" width="377.586" height="117.619" viewBox="0 0 377.586 117.619">
  <g id="Group_10773" data-name="Group 10773" transform="translate(-263.799 -369.84)">
    <path id="Path_10084" data-name="Path 10084" d="M545.346,392.56v55.819a7.21,7.21,0,0,0,7.23,7.19h13.69a7.2,7.2,0,0,0,7.22-7.18V392.56h20.159a7.21,7.21,0,0,0,7.22-7.19v-8.31a7.21,7.21,0,0,0-7.22-7.19H517.186v15.25h0v.32a7.2,7.2,0,0,0,7.24,7.12Z" fill="#fff" fill-rule="evenodd"/>
    <path id="Path_10085" data-name="Path 10085" d="M429.037,416.56a7.23,7.23,0,0,0,7.23,7.22h49.049v9.09H436.267a7.219,7.219,0,0,0-7.23,7.2v8.34a7.219,7.219,0,0,0,7.23,7.2h66.919a7.219,7.219,0,0,0,7.23-7.2V408.23a7.23,7.23,0,0,0-7.23-7.22H454.137v-9.17l49.049.75a7.21,7.21,0,0,0,7.23-7.19v-8.35a7.22,7.22,0,0,0-7.23-7.2H428.977Z" fill="#fff" fill-rule="evenodd"/>
    <path id="Path_10086" data-name="Path 10086" d="M390.357,448.359a7.21,7.21,0,0,0,7.22,7.2h13.7a7.21,7.21,0,0,0,7.23-7.19V377.1a7.21,7.21,0,0,0-7.23-7.19h-20.89Z" fill="#fff" fill-rule="evenodd"/>
    <path id="Path_10087" data-name="Path 10087" d="M613.235,448.359a7.21,7.21,0,0,0,7.22,7.2h13.7a7.21,7.21,0,0,0,7.23-7.19V377.1a7.21,7.21,0,0,0-7.23-7.19h-20.89Z" fill="#fff" fill-rule="evenodd"/>
    <path id="Path_10088" data-name="Path 10088" d="M352.018,392.56v55.719a7.21,7.21,0,0,0,7.23,7.19h13.68a7.21,7.21,0,0,0,7.22-7.19V377.04a7.22,7.22,0,0,0-7.22-7.2H263.8V448.3a7.21,7.21,0,0,0,7.23,7.19h13.69a7.2,7.2,0,0,0,7.209-7.19h0V392.56h16v55.719a7.2,7.2,0,0,0,7.21,7.19h13.7a7.21,7.21,0,0,0,7.23-7.19h0V392.56Z" fill="#fff" fill-rule="evenodd"/>
    <g id="Group_10772" data-name="Group 10772">
      <path id="Path_10089" data-name="Path 10089" d="M269.809,483.249h3a.65.65,0,0,0,.5-.22.762.762,0,0,0,.21-.54v-.81a.719.719,0,0,0-.21-.53.66.66,0,0,0-.5-.23h-4.46a3.72,3.72,0,0,1-1.44-.28,3.813,3.813,0,0,1-1.22-.79,4.006,4.006,0,0,1-.86-1.29,4.2,4.2,0,0,1-.32-1.66v-1.34a4.785,4.785,0,0,1,.34-1.82,4.992,4.992,0,0,1,.94-1.49,4.46,4.46,0,0,1,1.39-1,3.9,3.9,0,0,1,1.69-.37h5.39a3.829,3.829,0,0,1,1.62.36,4.765,4.765,0,0,1,1.38,1,4.962,4.962,0,0,1,1,1.39,3.941,3.941,0,0,1,.37,1.64,1.206,1.206,0,0,1-.21.72.621.621,0,0,1-.5.29h-3.97a.87.87,0,0,1-.72-.3,1.1,1.1,0,0,1-.24-.73v-.2h-2.46a.641.641,0,0,0-.5.23.768.768,0,0,0-.21.55v.27a.809.809,0,0,0,.21.56.671.671,0,0,0,.5.23h4.79a3.483,3.483,0,0,1,1.5.32,3.849,3.849,0,0,1,1.23.88,4.073,4.073,0,0,1,.83,1.32,4.292,4.292,0,0,1,.3,1.6v1.77a4.844,4.844,0,0,1-.34,1.82,5.01,5.01,0,0,1-.94,1.49,4.482,4.482,0,0,1-1.39,1,3.946,3.946,0,0,1-1.7.37h-6.28a4,4,0,0,1-1.7-.36,4.733,4.733,0,0,1-1.38-1,4.376,4.376,0,0,1-.93-1.4,4.113,4.113,0,0,1-.33-1.63,1.624,1.624,0,0,1,.2-.81.6.6,0,0,1,.51-.33h3.92a.83.83,0,0,1,.72.33,1.39,1.39,0,0,1,.24.81Z" fill="#fff"/>
      <path id="Path_10090" data-name="Path 10090" d="M294.958,475.939a.587.587,0,0,1-.21.46.686.686,0,0,1-.5.19h-4.18a.713.713,0,0,1-.5-.19.589.589,0,0,1-.209-.46v-1h-2.77a.668.668,0,0,0-.51.22.8.8,0,0,0-.2.54v6.77a.8.8,0,0,0,.2.54.668.668,0,0,0,.51.22h2.769v-.89a.762.762,0,0,1,.21-.54.67.67,0,0,1,.5-.23h4.18a.657.657,0,0,1,.5.23.757.757,0,0,1,.21.54v.89a4.307,4.307,0,0,1-.3,1.61,4.223,4.223,0,0,1-.83,1.31,3.7,3.7,0,0,1-1.22.88,3.422,3.422,0,0,1-1.49.33h-6.479a3.9,3.9,0,0,1-1.69-.37,4.46,4.46,0,0,1-1.39-1,4.992,4.992,0,0,1-.94-1.49,4.805,4.805,0,0,1-.34-1.82v-7.12a4.767,4.767,0,0,1,.34-1.82,4.992,4.992,0,0,1,.94-1.49,4.46,4.46,0,0,1,1.39-1,3.9,3.9,0,0,1,1.69-.37h6.479a3.559,3.559,0,0,1,1.49.32,3.719,3.719,0,0,1,1.22.89,4.074,4.074,0,0,1,.83,1.3,4.225,4.225,0,0,1,.3,1.59Z" fill="#fff"/>
      <path id="Path_10091" data-name="Path 10091" d="M305.908,471.559a.763.763,0,0,1,.21-.53.644.644,0,0,1,.5-.23h4.17a.681.681,0,0,1,.51.23.791.791,0,0,1,.2.53v15a.757.757,0,0,1-.2.53.681.681,0,0,1-.51.23h-4.17a.641.641,0,0,1-.5-.23.719.719,0,0,1-.21-.53v-4.7h-3.76v4.76a.719.719,0,0,1-.21.53.67.67,0,0,1-.5.23h-4.18a.66.66,0,0,1-.5-.23.723.723,0,0,1-.21-.53v-15.06a.763.763,0,0,1,.21-.53.66.66,0,0,1,.5-.23h4.18a.671.671,0,0,1,.5.23.759.759,0,0,1,.21.53v4.76h3.76Z" fill="#fff"/>
      <path id="Path_10092" data-name="Path 10092" d="M319,483.249h6.06a.659.659,0,0,1,.5.23.758.758,0,0,1,.21.54v2.6a.719.719,0,0,1-.21.53.659.659,0,0,1-.5.23h-10.71a.681.681,0,0,1-.51-.23.719.719,0,0,1-.21-.53v-15.06a.763.763,0,0,1,.21-.53.681.681,0,0,1,.51-.23h10.54a.671.671,0,0,1,.5.22.757.757,0,0,1,.21.54v2.61a.719.719,0,0,1-.21.53.638.638,0,0,1-.5.23H319v2h5.12a.649.649,0,0,1,.5.22.758.758,0,0,1,.21.54v2.6a.758.758,0,0,1-.21.54.653.653,0,0,1-.5.22H319Z" fill="#fff"/>
      <path id="Path_10093" data-name="Path 10093" d="M332.638,483.249h6.06a.671.671,0,0,1,.5.23.757.757,0,0,1,.21.54v2.6a.719.719,0,0,1-.21.53.67.67,0,0,1-.5.23h-10.72a.671.671,0,0,1-.5-.23.719.719,0,0,1-.21-.53v-15.06a.763.763,0,0,1,.21-.53.671.671,0,0,1,.5-.23h10.55a.68.68,0,0,1,.5.22.757.757,0,0,1,.21.54v2.61a.719.719,0,0,1-.21.53.659.659,0,0,1-.5.23h-5.89v2h5.12a.661.661,0,0,1,.5.22.757.757,0,0,1,.21.54v2.6a.757.757,0,0,1-.21.54.661.661,0,0,1-.5.22h-5.12Z" fill="#fff"/>
      <path id="Path_10094" data-name="Path 10094" d="M350.808,470.829a4.007,4.007,0,0,1,1.71.37,4.358,4.358,0,0,1,1.39,1,4.961,4.961,0,0,1,.93,1.49,5.015,5.015,0,0,1,.34,1.82v3a4.942,4.942,0,0,1-.34,1.81,4.828,4.828,0,0,1-.93,1.49,4.216,4.216,0,0,1-1.39,1,4.007,4.007,0,0,1-1.71.37h-4.28v3.37a.719.719,0,0,1-.21.53.659.659,0,0,1-.5.23h-4.18a.671.671,0,0,1-.5-.23.719.719,0,0,1-.21-.53v-14.99a.763.763,0,0,1,.21-.53.671.671,0,0,1,.5-.23Zm-2,8.3a.667.667,0,0,0,.5-.23.762.762,0,0,0,.21-.54v-2.63a.8.8,0,0,0-.21-.55.662.662,0,0,0-.5-.22h-2.28v4.17Z" fill="#fff"/>
      <path id="Path_10095" data-name="Path 10095" d="M361.628,483.249h3a.65.65,0,0,0,.5-.22.762.762,0,0,0,.21-.54v-.81a.719.719,0,0,0-.21-.53.66.66,0,0,0-.5-.23h-4.49a3.72,3.72,0,0,1-1.44-.28,3.813,3.813,0,0,1-1.22-.79,4,4,0,0,1-.86-1.26,4.2,4.2,0,0,1-.32-1.66v-1.37a4.785,4.785,0,0,1,.34-1.82,4.991,4.991,0,0,1,.94-1.49,4.46,4.46,0,0,1,1.39-1,3.9,3.9,0,0,1,1.69-.37h5.39a3.826,3.826,0,0,1,1.62.36,4.765,4.765,0,0,1,1.38,1,4.962,4.962,0,0,1,1,1.39,3.941,3.941,0,0,1,.37,1.64,1.206,1.206,0,0,1-.21.72.621.621,0,0,1-.5.29h-3.93a.87.87,0,0,1-.72-.3,1.1,1.1,0,0,1-.24-.73v-.2h-2.49a.641.641,0,0,0-.5.23.768.768,0,0,0-.21.55v.27a.809.809,0,0,0,.21.56.671.671,0,0,0,.5.23h4.79a3.483,3.483,0,0,1,1.5.32,3.848,3.848,0,0,1,1.23.88,4.073,4.073,0,0,1,.83,1.32,4.292,4.292,0,0,1,.3,1.6v1.77a4.844,4.844,0,0,1-.34,1.82,5.011,5.011,0,0,1-.94,1.49,4.482,4.482,0,0,1-1.39,1,3.946,3.946,0,0,1-1.7.37h-6.22a4,4,0,0,1-1.7-.36,4.733,4.733,0,0,1-1.38-1,4.377,4.377,0,0,1-.93-1.4,4.112,4.112,0,0,1-.33-1.63,1.624,1.624,0,0,1,.2-.81.6.6,0,0,1,.51-.33h3.92a.83.83,0,0,1,.72.33,1.39,1.39,0,0,1,.24.81Z" fill="#fff"/>
      <path id="Path_10096" data-name="Path 10096" d="M381.208,471.559a2.165,2.165,0,0,1,.59-.53,1.28,1.28,0,0,1,.66-.23h4.589c.23,0,.34.11.34.32a.814.814,0,0,1-.17.44l-5,7.18,5.469,7.85a.812.812,0,0,1,.17.45c0,.2-.11.31-.34.31h-4.929a1.221,1.221,0,0,1-.64-.23,2,2,0,0,1-.59-.53l-3.54-5.03v5.09a.723.723,0,0,1-.21.53.66.66,0,0,1-.5.23h-4a.67.67,0,0,1-.5-.23.719.719,0,0,1-.21-.53v-15.09a.759.759,0,0,1,.21-.53.671.671,0,0,1,.5-.23h4a.66.66,0,0,1,.5.23.763.763,0,0,1,.21.53v4.87Z" fill="#fff"/>
      <path id="Path_10097" data-name="Path 10097" d="M388.657,471.559a.763.763,0,0,1,.21-.53.674.674,0,0,1,.5-.23h9.07a4.5,4.5,0,0,1,1.7.33,4.185,4.185,0,0,1,1.39.89,4.435,4.435,0,0,1,.93,1.36,4.079,4.079,0,0,1,.34,1.68v2.58a6.661,6.661,0,0,1-.4,2.33,5.5,5.5,0,0,1-1.06,1.86l2.17,4.76a.751.751,0,0,1,.09.33.379.379,0,0,1-.32.431.373.373,0,0,1-.12,0h-4.18a1,1,0,0,1-.6-.23,1.594,1.594,0,0,1-.47-.53l-1.54-3.37h-2.34v3.37a.719.719,0,0,1-.21.53.671.671,0,0,1-.5.23h-3.95a.674.674,0,0,1-.5-.23.727.727,0,0,1-.21-.53Zm7.79,7.54a.657.657,0,0,0,.5-.23.757.757,0,0,0,.21-.54V475.7a.786.786,0,0,0-.21-.55.649.649,0,0,0-.5-.22h-2.42v4.17Z" fill="#fff"/>
      <path id="Path_10098" data-name="Path 10098" d="M413.847,485.2h-4.64l-.41,1.42a1.1,1.1,0,0,1-.38.53.881.881,0,0,1-.56.23h-4.18a.46.46,0,0,1-.52-.52,1.2,1.2,0,0,1,0-.24l4.45-15a1.19,1.19,0,0,1,.37-.53.912.912,0,0,1,.57-.23h5.98a.881.881,0,0,1,.56.23,1.214,1.214,0,0,1,.38.53l4.45,15a1.152,1.152,0,0,1,0,.22.5.5,0,0,1-.15.39.482.482,0,0,1-.37.15h-4.18a.86.86,0,0,1-.56-.23,1.056,1.056,0,0,1-.38-.53Zm-3.4-4.12h2.17l-1.09-3.68Z" fill="#fff"/>
      <path id="Path_10099" data-name="Path 10099" d="M431.527,471.559a.763.763,0,0,1,.21-.53.671.671,0,0,1,.5-.23h3.38a.681.681,0,0,1,.51.23.753.753,0,0,1,.2.53v15a.719.719,0,0,1-.2.53.681.681,0,0,1-.51.23h-4.53a1.053,1.053,0,0,1-.6-.23,1.439,1.439,0,0,1-.48-.53l-4.48-9.09v9.15a.719.719,0,0,1-.21.53.67.67,0,0,1-.5.23h-3.39a.67.67,0,0,1-.5-.23.719.719,0,0,1-.21-.53v-15.06a.763.763,0,0,1,.21-.53.671.671,0,0,1,.5-.23h4.53a1.059,1.059,0,0,1,.61.23,1.594,1.594,0,0,1,.48.53l4.47,9.15Z" fill="#fff"/>
      <path id="Path_10100" data-name="Path 10100" d="M443.8,483.249h6.06a.659.659,0,0,1,.5.23.762.762,0,0,1,.21.54v2.6a.719.719,0,0,1-.21.53.659.659,0,0,1-.5.23h-10.71a.681.681,0,0,1-.51-.23.757.757,0,0,1-.2-.53v-15.06a.791.791,0,0,1,.2-.53.681.681,0,0,1,.51-.23h10.54a.671.671,0,0,1,.5.22.762.762,0,0,1,.21.54v2.61a.719.719,0,0,1-.21.53.639.639,0,0,1-.5.23H443.8v2h5.12a.649.649,0,0,1,.5.22.762.762,0,0,1,.21.54v2.6a.762.762,0,0,1-.21.54.652.652,0,0,1-.5.22H443.8Z" fill="#fff"/>
      <path id="Path_10101" data-name="Path 10101" d="M462.867,471.559a.759.759,0,0,1,.21-.53.671.671,0,0,1,.5-.23h3.39a.671.671,0,0,1,.5.23.763.763,0,0,1,.21.53v15a.719.719,0,0,1-.21.53.671.671,0,0,1-.5.23h-4.54a1.053,1.053,0,0,1-.6-.23,1.422,1.422,0,0,1-.48-.53l-4.47-9.15v9.15a.719.719,0,0,1-.21.53.671.671,0,0,1-.5.23h-3.38a.681.681,0,0,1-.51-.23.719.719,0,0,1-.2-.53v-15a.749.749,0,0,1,.2-.53.681.681,0,0,1,.51-.23h4.53a1.053,1.053,0,0,1,.6.23,1.594,1.594,0,0,1,.48.53l4.47,9.15Z" fill="#fff"/>
      <path id="Path_10102" data-name="Path 10102" d="M493.526,484.7a2.845,2.845,0,0,1-.63,2,2.3,2.3,0,0,1-1.81.72H479.947a2.329,2.329,0,0,1-1.79-.73,2.768,2.768,0,0,1-.68-2v-6.13a2.3,2.3,0,0,1,2.67-2.56h1.88l-3.27-3.85a3.991,3.991,0,0,1-1.17-2.17,2.729,2.729,0,0,1,.67-1.91,2.579,2.579,0,0,1,1.91-.92h9.749a2,2,0,0,1,1.59.66,2.437,2.437,0,0,1,.6,1.72,2.316,2.316,0,0,1-.61,1.67,2.068,2.068,0,0,1-1.58.66h-6.609l6.11,7.24v-2.21c0-1.47.67-2.2,2-2.2s2.08.74,2.08,2.23Zm-5.49-1.43-3.25-3.55h-3.519v3.55Z" fill="#fff"/>
      <path id="Path_10103" data-name="Path 10103" d="M508.276,483.249h3a.661.661,0,0,0,.5-.22.757.757,0,0,0,.21-.54v-.81a.719.719,0,0,0-.21-.53.671.671,0,0,0-.5-.23h-4.49a3.816,3.816,0,0,1-3.52-2.33,4.01,4.01,0,0,1-.33-1.66v-1.37a4.884,4.884,0,0,1,1.29-3.31,4.483,4.483,0,0,1,1.39-1,3.9,3.9,0,0,1,1.69-.37h5.39a3.855,3.855,0,0,1,1.62.36,4.566,4.566,0,0,1,1.37,1,5.183,5.183,0,0,1,1,1.39,3.9,3.9,0,0,1,.36,1.64,1.2,1.2,0,0,1-.21.72.607.607,0,0,1-.5.29h-3.92a.869.869,0,0,1-.73-.3,1.115,1.115,0,0,1-.24-.73v-.2h-2.48a.624.624,0,0,0-.5.23.772.772,0,0,0-.21.55v.27a.809.809,0,0,0,.21.56.659.659,0,0,0,.5.23h4.78a3.557,3.557,0,0,1,1.51.32,3.849,3.849,0,0,1,1.23.88,4,4,0,0,1,.82,1.32,4.283,4.283,0,0,1,.31,1.6v1.77a4.827,4.827,0,0,1-.35,1.82,4.767,4.767,0,0,1-.94,1.49,4.459,4.459,0,0,1-1.39,1,3.9,3.9,0,0,1-1.69.37h-6.22a4.065,4.065,0,0,1-1.71-.36,4.746,4.746,0,0,1-1.38-1,4.537,4.537,0,0,1-.92-1.4,4.014,4.014,0,0,1-.34-1.63,1.535,1.535,0,0,1,.21-.81.6.6,0,0,1,.5-.33h3.93a.828.828,0,0,1,.72.33,1.376,1.376,0,0,1,.24.81Z" fill="#fff"/>
      <path id="Path_10104" data-name="Path 10104" d="M529,470.829a3.945,3.945,0,0,1,1.7.37,4.266,4.266,0,0,1,1.39,1,4.942,4.942,0,0,1,.93,1.49,4.788,4.788,0,0,1,.35,1.82v3a4.741,4.741,0,0,1-.35,1.81,4.81,4.81,0,0,1-.93,1.49,4.116,4.116,0,0,1-1.39,1,3.945,3.945,0,0,1-1.7.37h-4.3v3.37a.719.719,0,0,1-.21.53.671.671,0,0,1-.5.23h-4.18a.671.671,0,0,1-.5-.23.719.719,0,0,1-.21-.53v-14.99a.763.763,0,0,1,.21-.53.671.671,0,0,1,.5-.23Zm-2,8.3a.667.667,0,0,0,.5-.23.757.757,0,0,0,.21-.54v-2.63a.8.8,0,0,0-.21-.55.661.661,0,0,0-.5-.22h-2.34v4.17Z" fill="#fff"/>
      <path id="Path_10105" data-name="Path 10105" d="M534.756,471.559a.763.763,0,0,1,.21-.53.671.671,0,0,1,.5-.23h4.18a.659.659,0,0,1,.5.23.763.763,0,0,1,.21.53v10.9a.757.757,0,0,0,.21.54.661.661,0,0,0,.5.22h2.34a.649.649,0,0,0,.5-.22.762.762,0,0,0,.21-.54v-10.9a.759.759,0,0,1,.21-.53.671.671,0,0,1,.5-.23h4.18a.671.671,0,0,1,.5.23.763.763,0,0,1,.21.53v11.1a5.01,5.01,0,0,1-.34,1.82,5.174,5.174,0,0,1-.94,1.49,4.482,4.482,0,0,1-1.39,1,3.945,3.945,0,0,1-1.7.37h-6.22a3.9,3.9,0,0,1-1.69-.37,4.459,4.459,0,0,1-1.39-1,4.766,4.766,0,0,1-.94-1.49,4.827,4.827,0,0,1-.35-1.82Z" fill="#fff"/>
      <path id="Path_10106" data-name="Path 10106" d="M551.746,471.559a.791.791,0,0,1,.2-.53.681.681,0,0,1,.51-.23h9.88a3.931,3.931,0,0,1,1.69.37,4.483,4.483,0,0,1,1.39,1,5.011,5.011,0,0,1,.94,1.49,4.8,4.8,0,0,1,.34,1.82v7.17a4.843,4.843,0,0,1-.34,1.82,5.012,5.012,0,0,1-.94,1.49,4.484,4.484,0,0,1-1.39,1,3.931,3.931,0,0,1-1.69.37h-9.88a.681.681,0,0,1-.51-.23.758.758,0,0,1-.2-.53Zm5.59,11.66h3.05a.628.628,0,0,0,.5-.22.762.762,0,0,0,.21-.54v-6.77a.762.762,0,0,0-.21-.54.635.635,0,0,0-.5-.22h-3.05Z" fill="#fff"/>
      <path id="Path_10107" data-name="Path 10107" d="M578.376,470.829a4.011,4.011,0,0,1,1.7.37,4.266,4.266,0,0,1,1.39,1,4.939,4.939,0,0,1,.929,1.49,4.767,4.767,0,0,1,.34,1.82v3a4.713,4.713,0,0,1-.34,1.81,4.825,4.825,0,0,1-.929,1.49,4.116,4.116,0,0,1-1.39,1,4,4,0,0,1-1.7.37h-4.31v3.37a.762.762,0,0,1-.2.53.683.683,0,0,1-.51.23h-4.17a.679.679,0,0,1-.51-.23.753.753,0,0,1-.2-.53v-14.99a.786.786,0,0,1,.2-.53.679.679,0,0,1,.51-.23Zm-2,8.3a.66.66,0,0,0,.5-.23.762.762,0,0,0,.21-.54v-2.63a.8.8,0,0,0-.21-.55.655.655,0,0,0-.5-.22h-2.34v4.17Z" fill="#fff"/>
      <path id="Path_10108" data-name="Path 10108" d="M592.055,485.2h-4.64l-.42,1.42a1.09,1.09,0,0,1-.37.53.879.879,0,0,1-.57.23h-4.17a.459.459,0,0,1-.528-.379.477.477,0,0,1,0-.141,1.5,1.5,0,0,1,.05-.24l4.44-15a1.23,1.23,0,0,1,.38-.53.883.883,0,0,1,.57-.23h5.88a.879.879,0,0,1,.57.23,1.3,1.3,0,0,1,.38.53l4.44,15a1.614,1.614,0,0,1,0,.22.514.514,0,0,1-.53.54h-4.17a.881.881,0,0,1-.57-.23,1.09,1.09,0,0,1-.37-.53Zm-3.41-4.12h2.18l-1.09-3.68Z" fill="#fff"/>
      <path id="Path_10109" data-name="Path 10109" d="M598.905,471.559a.763.763,0,0,1,.21-.53.659.659,0,0,1,.5-.23h4.18a.671.671,0,0,1,.5.23.759.759,0,0,1,.21.53v11.66h5.53a.659.659,0,0,1,.5.23.757.757,0,0,1,.21.54v2.6a.719.719,0,0,1-.21.53.659.659,0,0,1-.5.23h-10.42a.659.659,0,0,1-.5-.23.719.719,0,0,1-.21-.53Z" fill="#fff"/>
      <path id="Path_10110" data-name="Path 10110" d="M617.435,483.249h6a.659.659,0,0,1,.5.23.758.758,0,0,1,.21.54v2.6a.719.719,0,0,1-.21.53.659.659,0,0,1-.5.23h-10.66a.659.659,0,0,1-.5-.23.719.719,0,0,1-.21-.53v-15.06a.763.763,0,0,1,.21-.53.659.659,0,0,1,.5-.23h10.55a.7.7,0,0,1,.5.22.81.81,0,0,1,.21.54v2.61a.772.772,0,0,1-.21.53.671.671,0,0,1-.5.23h-5.89v2h5.09a.649.649,0,0,1,.5.22.757.757,0,0,1,.21.54v2.6a.757.757,0,0,1-.21.54.653.653,0,0,1-.5.22h-5.11Z" fill="#fff"/>
      <path id="Path_10111" data-name="Path 10111" d="M636.525,471.559a.759.759,0,0,1,.21-.53.641.641,0,0,1,.5-.23h3.38a.659.659,0,0,1,.5.23.763.763,0,0,1,.21.53v15a.719.719,0,0,1-.21.53.659.659,0,0,1-.5.23h-4.53a1.059,1.059,0,0,1-.61-.23,1.43,1.43,0,0,1-.48-.53l-4.47-9.09v9.15a.719.719,0,0,1-.21.53.659.659,0,0,1-.5.23h-3.38a.639.639,0,0,1-.5-.23.719.719,0,0,1-.21-.53v-15.06a.763.763,0,0,1,.21-.53.643.643,0,0,1,.5-.23h4.53a1.079,1.079,0,0,1,.61.23,1.726,1.726,0,0,1,.48.53l4.47,9.15Z" fill="#fff"/>
    </g>
  </g>
</svg>
