<svg xmlns="http://www.w3.org/2000/svg" width="130.7" height="29.692" viewBox="0 0 130.7 29.692">
  <g id="Group_280" data-name="Group 280" transform="translate(-25.707 -16.728)">
    <path id="Path_261" data-name="Path 261" d="M288.838,24.61V43.93a2.5,2.5,0,0,0,2.5,2.491h4.739a2.5,2.5,0,0,0,2.5-2.491V24.61h6.976a2.5,2.5,0,0,0,2.5-2.492V19.23a2.5,2.5,0,0,0-2.5-2.491l-26.466-.011v5.28h.011v.11a2.493,2.493,0,0,0,2.5,2.492Z" transform="translate(-165.675)" fill="#f0552b" fill-rule="evenodd"/>
    <path id="Path_262" data-name="Path 262" d="M190.9,32.911a2.5,2.5,0,0,0,2.5,2.5h16.979v3.148H193.406a2.5,2.5,0,0,0-2.5,2.491v2.888a2.5,2.5,0,0,0,2.5,2.491H216.57a2.5,2.5,0,0,0,2.5-2.491V30.028a2.5,2.5,0,0,0-2.5-2.5H199.592V24.355l16.978.26a2.5,2.5,0,0,0,2.5-2.491V19.236a2.5,2.5,0,0,0-2.5-2.491l-25.688.011Z" transform="translate(-108 -0.011)" fill="#f0552b" fill-rule="evenodd"/>
    <path id="Path_263" data-name="Path 263" d="M152.264,43.937a2.5,2.5,0,0,0,2.5,2.49h4.739a2.5,2.5,0,0,0,2.5-2.49V19.27a2.5,2.5,0,0,0-2.5-2.49l-7.23-.011Z" transform="translate(-82.75 -0.027)" fill="#f0552b" fill-rule="evenodd"/>
    <path id="Path_264" data-name="Path 264" d="M375.147,43.937a2.5,2.5,0,0,0,2.5,2.49h4.738a2.5,2.5,0,0,0,2.5-2.49V19.27a2.5,2.5,0,0,0-2.5-2.49l-7.23-.011Z" transform="translate(-228.482 -0.027)" fill="#f0552b" fill-rule="evenodd"/>
    <path id="Path_265" data-name="Path 265" d="M56.244,24.607V43.894a2.494,2.494,0,0,0,2.5,2.491H63.48a2.5,2.5,0,0,0,2.5-2.491V19.227a2.5,2.5,0,0,0-2.5-2.491H25.707V43.894a2.5,2.5,0,0,0,2.5,2.491h4.739a2.493,2.493,0,0,0,2.5-2.491V24.607h5.529V43.894a2.5,2.5,0,0,0,2.5,2.491h4.739a2.5,2.5,0,0,0,2.5-2.491V24.607Z" transform="translate(0 -0.005)" fill="#f0552b" fill-rule="evenodd"/>
  </g>
</svg>
